<mxfile host="app.diagrams.net" modified="2024-01-07T21:59:08.938Z" agent="Mozilla/5.0 (Windows NT 10.0; Win64; x64; rv:121.0) Gecko/20100101 Firefox/121.0" etag="17rVW2OVliPpx63mhOKO" version="22.1.17" type="github">
  <diagram name="Page-1" id="efa7a0a1-bf9b-a30e-e6df-94a7791c09e9">
    <mxGraphModel dx="1670" dy="703" grid="1" gridSize="10" guides="1" tooltips="1" connect="1" arrows="1" fold="1" page="1" pageScale="1" pageWidth="826" pageHeight="1169" background="none" math="0" shadow="0">
      <root>
        <mxCell id="0" />
        <mxCell id="1" parent="0" />
        <mxCell id="25" value="&lt;p style=&quot;margin: 0px; margin-top: 4px; text-align: center; text-decoration: underline;&quot;&gt;&lt;strong&gt;Принтеры&lt;br&gt;&lt;/strong&gt;&lt;/p&gt;&lt;hr&gt;&lt;div&gt;id число&lt;br&gt;&lt;/div&gt;&lt;div&gt;name текст&lt;br&gt;&lt;/div&gt;" style="verticalAlign=top;align=left;overflow=fill;fontSize=12;fontFamily=Helvetica;html=1;strokeColor=#003366;shadow=1;fillColor=#D4E1F5;fontColor=#003366" parent="1" vertex="1">
          <mxGeometry y="30" width="160" height="88.36" as="geometry" />
        </mxCell>
        <mxCell id="2KHCgKjMZXj-dIjXSysh-114" value="&lt;p style=&quot;margin: 0px; margin-top: 4px; text-align: center; text-decoration: underline;&quot;&gt;&lt;strong&gt;Смолы&lt;br&gt;&lt;/strong&gt;&lt;/p&gt;&lt;hr&gt;&lt;div&gt;id число&lt;br&gt;&lt;/div&gt;&lt;div&gt;name текст&lt;/div&gt;&lt;div&gt;detailing текст&lt;br&gt;&lt;/div&gt;&lt;div&gt;hardness текст&lt;br&gt;&lt;/div&gt;&lt;div&gt;durability текст&lt;br&gt;&lt;/div&gt;&lt;div&gt;flexibility текст&lt;br&gt;&lt;/div&gt;&lt;div&gt;price в копейках целочисленное (для удобства)&lt;/div&gt;&lt;div&gt;&lt;br&gt;&lt;/div&gt;&lt;div&gt;&lt;br&gt;&lt;/div&gt;&lt;div&gt;&lt;br&gt;&lt;/div&gt;&lt;div&gt;&lt;br&gt;&lt;/div&gt;&lt;div&gt;&lt;br&gt;&lt;/div&gt;&lt;div&gt;&lt;br&gt;&lt;/div&gt;" style="verticalAlign=top;align=left;overflow=fill;fontSize=12;fontFamily=Helvetica;html=1;strokeColor=#003366;shadow=1;fillColor=#D4E1F5;fontColor=#003366" vertex="1" parent="1">
          <mxGeometry x="220" y="10" width="310" height="150" as="geometry" />
        </mxCell>
        <mxCell id="2KHCgKjMZXj-dIjXSysh-115" value="&lt;p style=&quot;margin: 0px; margin-top: 4px; text-align: center; text-decoration: underline;&quot;&gt;&lt;strong&gt;Отличительные черты&lt;br&gt;&lt;/strong&gt;&lt;/p&gt;&lt;hr&gt;&lt;div&gt;id число&lt;br&gt;&lt;/div&gt;&lt;div&gt;name текст&lt;br&gt;&lt;/div&gt;" style="verticalAlign=top;align=left;overflow=fill;fontSize=12;fontFamily=Helvetica;html=1;strokeColor=#003366;shadow=1;fillColor=#D4E1F5;fontColor=#003366" vertex="1" parent="1">
          <mxGeometry x="580" y="100" width="230" height="88.36" as="geometry" />
        </mxCell>
        <mxCell id="2KHCgKjMZXj-dIjXSysh-116" value="&lt;p style=&quot;margin: 0px; margin-top: 4px; text-align: center; text-decoration: underline;&quot;&gt;&lt;strong&gt;Цвет&lt;br&gt;&lt;/strong&gt;&lt;/p&gt;&lt;hr&gt;&lt;div&gt;id число&lt;br&gt;&lt;/div&gt;&lt;div&gt;name текст&lt;br&gt;&lt;/div&gt;" style="verticalAlign=top;align=left;overflow=fill;fontSize=12;fontFamily=Helvetica;html=1;strokeColor=#003366;shadow=1;fillColor=#D4E1F5;fontColor=#003366" vertex="1" parent="1">
          <mxGeometry x="600" width="160" height="88.36" as="geometry" />
        </mxCell>
        <mxCell id="2KHCgKjMZXj-dIjXSysh-117" value="&lt;p style=&quot;margin: 0px; margin-top: 4px; text-align: center; text-decoration: underline;&quot;&gt;&lt;strong&gt;Отличительные черты смол&lt;br&gt;&lt;/strong&gt;&lt;/p&gt;&lt;hr&gt;&lt;div&gt;id_key_feature число&lt;br&gt;&lt;/div&gt;&lt;div&gt;id_resin&lt;br&gt;&lt;/div&gt;" style="verticalAlign=top;align=left;overflow=fill;fontSize=12;fontFamily=Helvetica;html=1;strokeColor=#003366;shadow=1;fillColor=#D4E1F5;fontColor=#003366" vertex="1" parent="1">
          <mxGeometry x="40" y="360" width="220" height="88.36" as="geometry" />
        </mxCell>
        <mxCell id="2KHCgKjMZXj-dIjXSysh-118" value="&lt;p style=&quot;margin: 0px; margin-top: 4px; text-align: center; text-decoration: underline;&quot;&gt;&lt;strong&gt;Цвета смол&lt;br&gt;&lt;/strong&gt;&lt;/p&gt;&lt;hr&gt;&lt;div&gt;id_color число&lt;br&gt;&lt;/div&gt;&lt;div&gt;id_resin&lt;/div&gt;&lt;div&gt;&lt;br&gt;&lt;/div&gt;" style="verticalAlign=top;align=left;overflow=fill;fontSize=12;fontFamily=Helvetica;html=1;strokeColor=#003366;shadow=1;fillColor=#D4E1F5;fontColor=#003366" vertex="1" parent="1">
          <mxGeometry x="280" y="360" width="220" height="88.36" as="geometry" />
        </mxCell>
        <mxCell id="2KHCgKjMZXj-dIjXSysh-119" value="&lt;p style=&quot;margin: 0px; margin-top: 4px; text-align: center; text-decoration: underline;&quot;&gt;&lt;strong&gt;Параметры&lt;br&gt;&lt;/strong&gt;&lt;/p&gt;&lt;hr&gt;&lt;div&gt;id_printer&lt;/div&gt;&lt;div&gt;id_resin&lt;/div&gt;&lt;div&gt;layer_height&lt;/div&gt;&lt;div&gt;exposure_time&lt;/div&gt;&lt;div&gt;light_off_time&lt;/div&gt;&lt;div&gt;bottom_exposure_time&lt;/div&gt;&lt;div&gt;lifting_distance&lt;/div&gt;&lt;div&gt;lifting_speed&lt;/div&gt;&lt;div&gt;retract_speed&lt;/div&gt;&lt;div&gt;anti_aliasing&lt;br&gt;&lt;/div&gt;&lt;div&gt;&lt;br&gt;&lt;/div&gt;&lt;div&gt;&lt;br&gt;&lt;/div&gt;&lt;div&gt;&lt;br&gt;&lt;/div&gt;" style="verticalAlign=top;align=left;overflow=fill;fontSize=12;fontFamily=Helvetica;html=1;strokeColor=#003366;shadow=1;fillColor=#D4E1F5;fontColor=#003366" vertex="1" parent="1">
          <mxGeometry x="590" y="259" width="160" height="191" as="geometry" />
        </mxCell>
      </root>
    </mxGraphModel>
  </diagram>
</mxfile>
